<svg xmlns="http://www.w3.org/2000/svg" width="64" height="64" viewBox="0 0 64 64" fill="none" role="img" aria-labelledby="title desc">
  <title>Community chat</title>
  <desc>Chat bubbles icon.</desc>
  <defs>
      <linearGradient id="dl-red" x1="0" y1="0" x2="64" y2="64" gradientUnits="userSpaceOnUse">
        <stop offset="0%" stop-color="#ff2a2a"/>
        <stop offset="100%" stop-color="#8f0808"/>
      </linearGradient>
      <linearGradient id="dl-white" x1="0" y1="0" x2="64" y2="64" gradientUnits="userSpaceOnUse">
        <stop offset="0%" stop-color="#ffffff"/>
        <stop offset="100%" stop-color="#b7bac1"/>
      </linearGradient>
      <filter id="glow-red" x="-50%" y="-50%" width="200%" height="200%">
        <feDropShadow dx="0" dy="0" stdDeviation="2.2" flood-color="#ff0000" flood-opacity="0.38"/>
      </filter>
    </defs>
  <g stroke-linecap="round" stroke-linejoin="round">
    <path d="M12 16H36C39.3 16 42 18.7 42 22V30C42 33.3 39.3 36 36 36H22L16 42V36H12C8.7 36 6 33.3 6 30V22C6 18.7 8.7 16 12 16Z" stroke="url(#dl-white)" stroke-width="3.2"/>
    <path d="M30 24H50C53.3 24 56 26.7 56 30V38C56 41.3 53.3 44 50 44H46V50L40 44H34" stroke="url(#dl-red)" stroke-width="3.2" filter="url(#glow-red)"/>

  </g>
</svg>
