<svg xmlns="http://www.w3.org/2000/svg" width="64" height="64" viewBox="0 0 64 64" fill="none" role="img" aria-labelledby="title desc">
  <title>Ranking</title>
  <desc>Trophy leaderboard icon.</desc>
  <defs>
      <linearGradient id="dl-red" x1="0" y1="0" x2="64" y2="64" gradientUnits="userSpaceOnUse">
        <stop offset="0%" stop-color="#ff2a2a"/>
        <stop offset="100%" stop-color="#8f0808"/>
      </linearGradient>
      <linearGradient id="dl-white" x1="0" y1="0" x2="64" y2="64" gradientUnits="userSpaceOnUse">
        <stop offset="0%" stop-color="#ffffff"/>
        <stop offset="100%" stop-color="#b7bac1"/>
      </linearGradient>
      <filter id="glow-red" x="-50%" y="-50%" width="200%" height="200%">
        <feDropShadow dx="0" dy="0" stdDeviation="2.2" flood-color="#ff0000" flood-opacity="0.38"/>
      </filter>
    </defs>
  <g stroke-linecap="round" stroke-linejoin="round">
    <path d="M22 12H42V20C42 27 37.5 32 32 34C26.5 32 22 27 22 20V12Z" stroke="url(#dl-white)" stroke-width="3.2"/>
    <path d="M22 16H16C16 22 18 26 24 26M42 16H48C48 22 46 26 40 26" stroke="url(#dl-white)" stroke-width="3.2"/>
    <path d="M28 38H36" stroke="url(#dl-red)" stroke-width="3.2" filter="url(#glow-red)"/>
    <path d="M24 46H40M30 34V46M34 34V46" stroke="url(#dl-white)" stroke-width="3.2"/>

  </g>
</svg>
