<svg xmlns="http://www.w3.org/2000/svg" style="display:none">
<symbol id="logo-mark" viewBox="0 0 64 64">

  <defs>
    <linearGradient id="dl-red" x1="0" y1="0" x2="64" y2="64" gradientUnits="userSpaceOnUse">
      <stop offset="0%" stop-color="#ff2a2a"/>
      <stop offset="100%" stop-color="#8f0808"/>
    </linearGradient>
    <linearGradient id="dl-white" x1="0" y1="0" x2="64" y2="64" gradientUnits="userSpaceOnUse">
      <stop offset="0%" stop-color="#ffffff"/>
      <stop offset="100%" stop-color="#b7bac1"/>
    </linearGradient>
    <filter id="glow-red" x="-50%" y="-50%" width="200%" height="200%">
      <feDropShadow dx="0" dy="0" stdDeviation="2.2" flood-color="#ff0000" flood-opacity="0.38"/>
    </filter>
  </defs>

<g stroke-linecap="round" stroke-linejoin="round">
    <path d="M18 10H36L48 22V42L36 54H18L10 46V18L18 10Z" stroke="url(#dl-red)" stroke-width="4.5" filter="url(#glow-red)"/>
    <path d="M24 18H35L41 24V40L35 46H24" stroke="url(#dl-white)" stroke-width="4"/>
    <path d="M24 18V46" stroke="url(#dl-red)" stroke-width="4"/>
    <path d="M24 32H37" stroke="url(#dl-red)" stroke-width="4"/>

</g></symbol>
<symbol id="home" viewBox="0 0 64 64">

  <defs>
    <linearGradient id="dl-red" x1="0" y1="0" x2="64" y2="64" gradientUnits="userSpaceOnUse">
      <stop offset="0%" stop-color="#ff2a2a"/>
      <stop offset="100%" stop-color="#8f0808"/>
    </linearGradient>
    <linearGradient id="dl-white" x1="0" y1="0" x2="64" y2="64" gradientUnits="userSpaceOnUse">
      <stop offset="0%" stop-color="#ffffff"/>
      <stop offset="100%" stop-color="#b7bac1"/>
    </linearGradient>
    <filter id="glow-red" x="-50%" y="-50%" width="200%" height="200%">
      <feDropShadow dx="0" dy="0" stdDeviation="2.2" flood-color="#ff0000" flood-opacity="0.38"/>
    </filter>
  </defs>

<g stroke-linecap="round" stroke-linejoin="round">
    <path d="M10 28L32 12L54 28" stroke="url(#dl-white)" stroke-width="3.4"/>
    <path d="M16 26V50H48V26" stroke="url(#dl-white)" stroke-width="3.4"/>
    <path d="M27 50V36H37V50" stroke="url(#dl-red)" stroke-width="3.4" filter="url(#glow-red)"/>

</g></symbol>
<symbol id="menu" viewBox="0 0 64 64">

  <defs>
    <linearGradient id="dl-red" x1="0" y1="0" x2="64" y2="64" gradientUnits="userSpaceOnUse">
      <stop offset="0%" stop-color="#ff2a2a"/>
      <stop offset="100%" stop-color="#8f0808"/>
    </linearGradient>
    <linearGradient id="dl-white" x1="0" y1="0" x2="64" y2="64" gradientUnits="userSpaceOnUse">
      <stop offset="0%" stop-color="#ffffff"/>
      <stop offset="100%" stop-color="#b7bac1"/>
    </linearGradient>
    <filter id="glow-red" x="-50%" y="-50%" width="200%" height="200%">
      <feDropShadow dx="0" dy="0" stdDeviation="2.2" flood-color="#ff0000" flood-opacity="0.38"/>
    </filter>
  </defs>

<g stroke-linecap="round" stroke-linejoin="round">
    <path d="M14 20H50" stroke="url(#dl-white)" stroke-width="4"/>
    <path d="M14 32H50" stroke="url(#dl-red)" stroke-width="4" filter="url(#glow-red)"/>
    <path d="M14 44H50" stroke="url(#dl-white)" stroke-width="4"/>

</g></symbol>
<symbol id="search" viewBox="0 0 64 64">

  <defs>
    <linearGradient id="dl-red" x1="0" y1="0" x2="64" y2="64" gradientUnits="userSpaceOnUse">
      <stop offset="0%" stop-color="#ff2a2a"/>
      <stop offset="100%" stop-color="#8f0808"/>
    </linearGradient>
    <linearGradient id="dl-white" x1="0" y1="0" x2="64" y2="64" gradientUnits="userSpaceOnUse">
      <stop offset="0%" stop-color="#ffffff"/>
      <stop offset="100%" stop-color="#b7bac1"/>
    </linearGradient>
    <filter id="glow-red" x="-50%" y="-50%" width="200%" height="200%">
      <feDropShadow dx="0" dy="0" stdDeviation="2.2" flood-color="#ff0000" flood-opacity="0.38"/>
    </filter>
  </defs>

<g stroke-linecap="round" stroke-linejoin="round">
    <circle cx="28" cy="28" r="12" stroke="url(#dl-white)" stroke-width="3.6"/>
    <path d="M37 37L50 50" stroke="url(#dl-red)" stroke-width="4" filter="url(#glow-red)"/>

</g></symbol>
<symbol id="filter" viewBox="0 0 64 64">

  <defs>
    <linearGradient id="dl-red" x1="0" y1="0" x2="64" y2="64" gradientUnits="userSpaceOnUse">
      <stop offset="0%" stop-color="#ff2a2a"/>
      <stop offset="100%" stop-color="#8f0808"/>
    </linearGradient>
    <linearGradient id="dl-white" x1="0" y1="0" x2="64" y2="64" gradientUnits="userSpaceOnUse">
      <stop offset="0%" stop-color="#ffffff"/>
      <stop offset="100%" stop-color="#b7bac1"/>
    </linearGradient>
    <filter id="glow-red" x="-50%" y="-50%" width="200%" height="200%">
      <feDropShadow dx="0" dy="0" stdDeviation="2.2" flood-color="#ff0000" flood-opacity="0.38"/>
    </filter>
  </defs>

<g stroke-linecap="round" stroke-linejoin="round">
    <path d="M12 16H52" stroke="url(#dl-white)" stroke-width="3.4"/>
    <path d="M18 16V26L28 36V48" stroke="url(#dl-red)" stroke-width="3.4" filter="url(#glow-red)"/>
    <path d="M46 16V26L36 36V48" stroke="url(#dl-white)" stroke-width="3.4"/>

</g></symbol>
<symbol id="chevron-left" viewBox="0 0 64 64">

  <defs>
    <linearGradient id="dl-red" x1="0" y1="0" x2="64" y2="64" gradientUnits="userSpaceOnUse">
      <stop offset="0%" stop-color="#ff2a2a"/>
      <stop offset="100%" stop-color="#8f0808"/>
    </linearGradient>
    <linearGradient id="dl-white" x1="0" y1="0" x2="64" y2="64" gradientUnits="userSpaceOnUse">
      <stop offset="0%" stop-color="#ffffff"/>
      <stop offset="100%" stop-color="#b7bac1"/>
    </linearGradient>
    <filter id="glow-red" x="-50%" y="-50%" width="200%" height="200%">
      <feDropShadow dx="0" dy="0" stdDeviation="2.2" flood-color="#ff0000" flood-opacity="0.38"/>
    </filter>
  </defs>

<g stroke-linecap="round" stroke-linejoin="round">
    <path d="M38 14L24 32L38 50" stroke="url(#dl-white)" stroke-width="4.4"/>

</g></symbol>
<symbol id="chevron-right" viewBox="0 0 64 64">

  <defs>
    <linearGradient id="dl-red" x1="0" y1="0" x2="64" y2="64" gradientUnits="userSpaceOnUse">
      <stop offset="0%" stop-color="#ff2a2a"/>
      <stop offset="100%" stop-color="#8f0808"/>
    </linearGradient>
    <linearGradient id="dl-white" x1="0" y1="0" x2="64" y2="64" gradientUnits="userSpaceOnUse">
      <stop offset="0%" stop-color="#ffffff"/>
      <stop offset="100%" stop-color="#b7bac1"/>
    </linearGradient>
    <filter id="glow-red" x="-50%" y="-50%" width="200%" height="200%">
      <feDropShadow dx="0" dy="0" stdDeviation="2.2" flood-color="#ff0000" flood-opacity="0.38"/>
    </filter>
  </defs>

<g stroke-linecap="round" stroke-linejoin="round">
    <path d="M26 14L40 32L26 50" stroke="url(#dl-red)" stroke-width="4.4" filter="url(#glow-red)"/>

</g></symbol>
<symbol id="plus" viewBox="0 0 64 64">

  <defs>
    <linearGradient id="dl-red" x1="0" y1="0" x2="64" y2="64" gradientUnits="userSpaceOnUse">
      <stop offset="0%" stop-color="#ff2a2a"/>
      <stop offset="100%" stop-color="#8f0808"/>
    </linearGradient>
    <linearGradient id="dl-white" x1="0" y1="0" x2="64" y2="64" gradientUnits="userSpaceOnUse">
      <stop offset="0%" stop-color="#ffffff"/>
      <stop offset="100%" stop-color="#b7bac1"/>
    </linearGradient>
    <filter id="glow-red" x="-50%" y="-50%" width="200%" height="200%">
      <feDropShadow dx="0" dy="0" stdDeviation="2.2" flood-color="#ff0000" flood-opacity="0.38"/>
    </filter>
  </defs>

<g stroke-linecap="round" stroke-linejoin="round">
    <path d="M32 14V50" stroke="url(#dl-red)" stroke-width="4.2" filter="url(#glow-red)"/>
    <path d="M14 32H50" stroke="url(#dl-white)" stroke-width="4.2"/>

</g></symbol>
<symbol id="close" viewBox="0 0 64 64">

  <defs>
    <linearGradient id="dl-red" x1="0" y1="0" x2="64" y2="64" gradientUnits="userSpaceOnUse">
      <stop offset="0%" stop-color="#ff2a2a"/>
      <stop offset="100%" stop-color="#8f0808"/>
    </linearGradient>
    <linearGradient id="dl-white" x1="0" y1="0" x2="64" y2="64" gradientUnits="userSpaceOnUse">
      <stop offset="0%" stop-color="#ffffff"/>
      <stop offset="100%" stop-color="#b7bac1"/>
    </linearGradient>
    <filter id="glow-red" x="-50%" y="-50%" width="200%" height="200%">
      <feDropShadow dx="0" dy="0" stdDeviation="2.2" flood-color="#ff0000" flood-opacity="0.38"/>
    </filter>
  </defs>

<g stroke-linecap="round" stroke-linejoin="round">
    <path d="M18 18L46 46" stroke="url(#dl-white)" stroke-width="4.2"/>
    <path d="M46 18L18 46" stroke="url(#dl-red)" stroke-width="4.2" filter="url(#glow-red)"/>

</g></symbol>
<symbol id="calendar" viewBox="0 0 64 64">

  <defs>
    <linearGradient id="dl-red" x1="0" y1="0" x2="64" y2="64" gradientUnits="userSpaceOnUse">
      <stop offset="0%" stop-color="#ff2a2a"/>
      <stop offset="100%" stop-color="#8f0808"/>
    </linearGradient>
    <linearGradient id="dl-white" x1="0" y1="0" x2="64" y2="64" gradientUnits="userSpaceOnUse">
      <stop offset="0%" stop-color="#ffffff"/>
      <stop offset="100%" stop-color="#b7bac1"/>
    </linearGradient>
    <filter id="glow-red" x="-50%" y="-50%" width="200%" height="200%">
      <feDropShadow dx="0" dy="0" stdDeviation="2.2" flood-color="#ff0000" flood-opacity="0.38"/>
    </filter>
  </defs>

<g stroke-linecap="round" stroke-linejoin="round">
    <rect x="12" y="14" width="40" height="38" rx="6" stroke="url(#dl-white)" stroke-width="3.2"/>
    <path d="M12 24H52" stroke="url(#dl-red)" stroke-width="3.2" filter="url(#glow-red)"/>
    <path d="M20 10V18" stroke="url(#dl-white)" stroke-width="3.2"/>
    <path d="M44 10V18" stroke="url(#dl-white)" stroke-width="3.2"/>
    <path d="M22 32H30M22 40H30M36 32H42" stroke="url(#dl-white)" stroke-width="2.6"/>

</g></symbol>
<symbol id="clock" viewBox="0 0 64 64">

  <defs>
    <linearGradient id="dl-red" x1="0" y1="0" x2="64" y2="64" gradientUnits="userSpaceOnUse">
      <stop offset="0%" stop-color="#ff2a2a"/>
      <stop offset="100%" stop-color="#8f0808"/>
    </linearGradient>
    <linearGradient id="dl-white" x1="0" y1="0" x2="64" y2="64" gradientUnits="userSpaceOnUse">
      <stop offset="0%" stop-color="#ffffff"/>
      <stop offset="100%" stop-color="#b7bac1"/>
    </linearGradient>
    <filter id="glow-red" x="-50%" y="-50%" width="200%" height="200%">
      <feDropShadow dx="0" dy="0" stdDeviation="2.2" flood-color="#ff0000" flood-opacity="0.38"/>
    </filter>
  </defs>

<g stroke-linecap="round" stroke-linejoin="round">
    <circle cx="32" cy="32" r="20" stroke="url(#dl-white)" stroke-width="3.2"/>
    <path d="M32 22V33L40 38" stroke="url(#dl-red)" stroke-width="3.4" filter="url(#glow-red)"/>

</g></symbol>
<symbol id="user" viewBox="0 0 64 64">

  <defs>
    <linearGradient id="dl-red" x1="0" y1="0" x2="64" y2="64" gradientUnits="userSpaceOnUse">
      <stop offset="0%" stop-color="#ff2a2a"/>
      <stop offset="100%" stop-color="#8f0808"/>
    </linearGradient>
    <linearGradient id="dl-white" x1="0" y1="0" x2="64" y2="64" gradientUnits="userSpaceOnUse">
      <stop offset="0%" stop-color="#ffffff"/>
      <stop offset="100%" stop-color="#b7bac1"/>
    </linearGradient>
    <filter id="glow-red" x="-50%" y="-50%" width="200%" height="200%">
      <feDropShadow dx="0" dy="0" stdDeviation="2.2" flood-color="#ff0000" flood-opacity="0.38"/>
    </filter>
  </defs>

<g stroke-linecap="round" stroke-linejoin="round">
    <circle cx="32" cy="22" r="8" stroke="url(#dl-white)" stroke-width="3.2"/>
    <path d="M18 48C20 40 25 36 32 36C39 36 44 40 46 48" stroke="url(#dl-red)" stroke-width="3.2" filter="url(#glow-red)"/>

</g></symbol>
<symbol id="users" viewBox="0 0 64 64">

  <defs>
    <linearGradient id="dl-red" x1="0" y1="0" x2="64" y2="64" gradientUnits="userSpaceOnUse">
      <stop offset="0%" stop-color="#ff2a2a"/>
      <stop offset="100%" stop-color="#8f0808"/>
    </linearGradient>
    <linearGradient id="dl-white" x1="0" y1="0" x2="64" y2="64" gradientUnits="userSpaceOnUse">
      <stop offset="0%" stop-color="#ffffff"/>
      <stop offset="100%" stop-color="#b7bac1"/>
    </linearGradient>
    <filter id="glow-red" x="-50%" y="-50%" width="200%" height="200%">
      <feDropShadow dx="0" dy="0" stdDeviation="2.2" flood-color="#ff0000" flood-opacity="0.38"/>
    </filter>
  </defs>

<g stroke-linecap="round" stroke-linejoin="round">
    <circle cx="22" cy="22" r="6" stroke="url(#dl-white)" stroke-width="3"/>
    <circle cx="42" cy="22" r="6" stroke="url(#dl-white)" stroke-width="3"/>
    <path d="M12 46C13.5 39.5 18 36 24 36C30 36 34.5 39.5 36 46" stroke="url(#dl-red)" stroke-width="3.2" filter="url(#glow-red)"/>
    <path d="M28 46C29.5 39.5 34 36 40 36C46 36 50.5 39.5 52 46" stroke="url(#dl-white)" stroke-width="3.2"/>

</g></symbol>
<symbol id="profile-badge" viewBox="0 0 64 64">

  <defs>
    <linearGradient id="dl-red" x1="0" y1="0" x2="64" y2="64" gradientUnits="userSpaceOnUse">
      <stop offset="0%" stop-color="#ff2a2a"/>
      <stop offset="100%" stop-color="#8f0808"/>
    </linearGradient>
    <linearGradient id="dl-white" x1="0" y1="0" x2="64" y2="64" gradientUnits="userSpaceOnUse">
      <stop offset="0%" stop-color="#ffffff"/>
      <stop offset="100%" stop-color="#b7bac1"/>
    </linearGradient>
    <filter id="glow-red" x="-50%" y="-50%" width="200%" height="200%">
      <feDropShadow dx="0" dy="0" stdDeviation="2.2" flood-color="#ff0000" flood-opacity="0.38"/>
    </filter>
  </defs>

<g stroke-linecap="round" stroke-linejoin="round">
    <circle cx="24" cy="22" r="7" stroke="url(#dl-white)" stroke-width="3"/>
    <path d="M12 46C14 39 18 36 24 36C30 36 34 39 36 46" stroke="url(#dl-white)" stroke-width="3"/>
    <path d="M44 18L48 22L54 14" stroke="url(#dl-red)" stroke-width="3.4" filter="url(#glow-red)"/>
    <circle cx="47" cy="18" r="9" stroke="url(#dl-red)" stroke-width="2.8" filter="url(#glow-red)"/>

</g></symbol>
<symbol id="login" viewBox="0 0 64 64">

  <defs>
    <linearGradient id="dl-red" x1="0" y1="0" x2="64" y2="64" gradientUnits="userSpaceOnUse">
      <stop offset="0%" stop-color="#ff2a2a"/>
      <stop offset="100%" stop-color="#8f0808"/>
    </linearGradient>
    <linearGradient id="dl-white" x1="0" y1="0" x2="64" y2="64" gradientUnits="userSpaceOnUse">
      <stop offset="0%" stop-color="#ffffff"/>
      <stop offset="100%" stop-color="#b7bac1"/>
    </linearGradient>
    <filter id="glow-red" x="-50%" y="-50%" width="200%" height="200%">
      <feDropShadow dx="0" dy="0" stdDeviation="2.2" flood-color="#ff0000" flood-opacity="0.38"/>
    </filter>
  </defs>

<g stroke-linecap="round" stroke-linejoin="round">
    <path d="M28 12H16V52H28" stroke="url(#dl-white)" stroke-width="3.2"/>
    <path d="M30 32H52" stroke="url(#dl-red)" stroke-width="3.8" filter="url(#glow-red)"/>
    <path d="M42 22L52 32L42 42" stroke="url(#dl-red)" stroke-width="3.8" filter="url(#glow-red)"/>

</g></symbol>
<symbol id="logout" viewBox="0 0 64 64">

  <defs>
    <linearGradient id="dl-red" x1="0" y1="0" x2="64" y2="64" gradientUnits="userSpaceOnUse">
      <stop offset="0%" stop-color="#ff2a2a"/>
      <stop offset="100%" stop-color="#8f0808"/>
    </linearGradient>
    <linearGradient id="dl-white" x1="0" y1="0" x2="64" y2="64" gradientUnits="userSpaceOnUse">
      <stop offset="0%" stop-color="#ffffff"/>
      <stop offset="100%" stop-color="#b7bac1"/>
    </linearGradient>
    <filter id="glow-red" x="-50%" y="-50%" width="200%" height="200%">
      <feDropShadow dx="0" dy="0" stdDeviation="2.2" flood-color="#ff0000" flood-opacity="0.38"/>
    </filter>
  </defs>

<g stroke-linecap="round" stroke-linejoin="round">
    <path d="M36 12H48V52H36" stroke="url(#dl-white)" stroke-width="3.2"/>
    <path d="M34 32H12" stroke="url(#dl-red)" stroke-width="3.8" filter="url(#glow-red)"/>
    <path d="M22 22L12 32L22 42" stroke="url(#dl-red)" stroke-width="3.8" filter="url(#glow-red)"/>

</g></symbol>
<symbol id="secure-shield" viewBox="0 0 64 64">

  <defs>
    <linearGradient id="dl-red" x1="0" y1="0" x2="64" y2="64" gradientUnits="userSpaceOnUse">
      <stop offset="0%" stop-color="#ff2a2a"/>
      <stop offset="100%" stop-color="#8f0808"/>
    </linearGradient>
    <linearGradient id="dl-white" x1="0" y1="0" x2="64" y2="64" gradientUnits="userSpaceOnUse">
      <stop offset="0%" stop-color="#ffffff"/>
      <stop offset="100%" stop-color="#b7bac1"/>
    </linearGradient>
    <filter id="glow-red" x="-50%" y="-50%" width="200%" height="200%">
      <feDropShadow dx="0" dy="0" stdDeviation="2.2" flood-color="#ff0000" flood-opacity="0.38"/>
    </filter>
  </defs>

<g stroke-linecap="round" stroke-linejoin="round">
    <path d="M32 10L48 16V28C48 39 40 47 32 52C24 47 16 39 16 28V16L32 10Z" stroke="url(#dl-white)" stroke-width="3.2"/>
    <path d="M24 31L30 37L40 25" stroke="url(#dl-red)" stroke-width="4" filter="url(#glow-red)"/>

</g></symbol>
<symbol id="notification-bell" viewBox="0 0 64 64">

  <defs>
    <linearGradient id="dl-red" x1="0" y1="0" x2="64" y2="64" gradientUnits="userSpaceOnUse">
      <stop offset="0%" stop-color="#ff2a2a"/>
      <stop offset="100%" stop-color="#8f0808"/>
    </linearGradient>
    <linearGradient id="dl-white" x1="0" y1="0" x2="64" y2="64" gradientUnits="userSpaceOnUse">
      <stop offset="0%" stop-color="#ffffff"/>
      <stop offset="100%" stop-color="#b7bac1"/>
    </linearGradient>
    <filter id="glow-red" x="-50%" y="-50%" width="200%" height="200%">
      <feDropShadow dx="0" dy="0" stdDeviation="2.2" flood-color="#ff0000" flood-opacity="0.38"/>
    </filter>
  </defs>

<g stroke-linecap="round" stroke-linejoin="round">
    <path d="M20 24C20 17.5 25 14 32 14C39 14 44 17.5 44 24V34L48 40H16L20 34V24Z" stroke="url(#dl-white)" stroke-width="3.2"/>
    <path d="M28 46C29.2 48 30.4 49 32 49C33.6 49 34.8 48 36 46" stroke="url(#dl-red)" stroke-width="3.2" filter="url(#glow-red)"/>

</g></symbol>
<symbol id="settings" viewBox="0 0 64 64">

  <defs>
    <linearGradient id="dl-red" x1="0" y1="0" x2="64" y2="64" gradientUnits="userSpaceOnUse">
      <stop offset="0%" stop-color="#ff2a2a"/>
      <stop offset="100%" stop-color="#8f0808"/>
    </linearGradient>
    <linearGradient id="dl-white" x1="0" y1="0" x2="64" y2="64" gradientUnits="userSpaceOnUse">
      <stop offset="0%" stop-color="#ffffff"/>
      <stop offset="100%" stop-color="#b7bac1"/>
    </linearGradient>
    <filter id="glow-red" x="-50%" y="-50%" width="200%" height="200%">
      <feDropShadow dx="0" dy="0" stdDeviation="2.2" flood-color="#ff0000" flood-opacity="0.38"/>
    </filter>
  </defs>

<g stroke-linecap="round" stroke-linejoin="round">
    <circle cx="32" cy="32" r="8" stroke="url(#dl-red)" stroke-width="3.4" filter="url(#glow-red)"/>
    <path d="M32 12V18M32 46V52M12 32H18M46 32H52M18 18L22 22M42 42L46 46M46 18L42 22M18 46L22 42" stroke="url(#dl-white)" stroke-width="3.2"/>

</g></symbol>
<symbol id="matchmaking" viewBox="0 0 64 64">

  <defs>
    <linearGradient id="dl-red" x1="0" y1="0" x2="64" y2="64" gradientUnits="userSpaceOnUse">
      <stop offset="0%" stop-color="#ff2a2a"/>
      <stop offset="100%" stop-color="#8f0808"/>
    </linearGradient>
    <linearGradient id="dl-white" x1="0" y1="0" x2="64" y2="64" gradientUnits="userSpaceOnUse">
      <stop offset="0%" stop-color="#ffffff"/>
      <stop offset="100%" stop-color="#b7bac1"/>
    </linearGradient>
    <filter id="glow-red" x="-50%" y="-50%" width="200%" height="200%">
      <feDropShadow dx="0" dy="0" stdDeviation="2.2" flood-color="#ff0000" flood-opacity="0.38"/>
    </filter>
  </defs>

<g stroke-linecap="round" stroke-linejoin="round">
    <circle cx="20" cy="23" r="6" stroke="url(#dl-white)" stroke-width="3.2"/>
    <circle cx="44" cy="23" r="6" stroke="url(#dl-white)" stroke-width="3.2"/>
    <path d="M12 46C13.5 39.5 18 36 24 36C30 36 34.5 39.5 36 46" stroke="url(#dl-white)" stroke-width="3.2"/>
    <path d="M28 46C29.5 39.5 34 36 40 36C46 36 50.5 39.5 52 46" stroke="url(#dl-white)" stroke-width="3.2"/>
    <path d="M24 22H40" stroke="url(#dl-red)" stroke-width="3.4" filter="url(#glow-red)"/>
    <path d="M32 16L38 22L32 28L26 22L32 16Z" stroke="url(#dl-red)" stroke-width="2.8" filter="url(#glow-red)"/>

</g></symbol>
<symbol id="lobby-finder" viewBox="0 0 64 64">

  <defs>
    <linearGradient id="dl-red" x1="0" y1="0" x2="64" y2="64" gradientUnits="userSpaceOnUse">
      <stop offset="0%" stop-color="#ff2a2a"/>
      <stop offset="100%" stop-color="#8f0808"/>
    </linearGradient>
    <linearGradient id="dl-white" x1="0" y1="0" x2="64" y2="64" gradientUnits="userSpaceOnUse">
      <stop offset="0%" stop-color="#ffffff"/>
      <stop offset="100%" stop-color="#b7bac1"/>
    </linearGradient>
    <filter id="glow-red" x="-50%" y="-50%" width="200%" height="200%">
      <feDropShadow dx="0" dy="0" stdDeviation="2.2" flood-color="#ff0000" flood-opacity="0.38"/>
    </filter>
  </defs>

<g stroke-linecap="round" stroke-linejoin="round">
    <rect x="10" y="12" width="28" height="28" rx="6" stroke="url(#dl-white)" stroke-width="3.2"/>
    <path d="M18 20H30M18 28H24" stroke="url(#dl-white)" stroke-width="2.6"/>
    <path d="M44 40L52 48" stroke="url(#dl-red)" stroke-width="4" filter="url(#glow-red)"/>
    <circle cx="40" cy="36" r="8" stroke="url(#dl-red)" stroke-width="3.6" filter="url(#glow-red)"/>

</g></symbol>
<symbol id="vault" viewBox="0 0 64 64">

  <defs>
    <linearGradient id="dl-red" x1="0" y1="0" x2="64" y2="64" gradientUnits="userSpaceOnUse">
      <stop offset="0%" stop-color="#ff2a2a"/>
      <stop offset="100%" stop-color="#8f0808"/>
    </linearGradient>
    <linearGradient id="dl-white" x1="0" y1="0" x2="64" y2="64" gradientUnits="userSpaceOnUse">
      <stop offset="0%" stop-color="#ffffff"/>
      <stop offset="100%" stop-color="#b7bac1"/>
    </linearGradient>
    <filter id="glow-red" x="-50%" y="-50%" width="200%" height="200%">
      <feDropShadow dx="0" dy="0" stdDeviation="2.2" flood-color="#ff0000" flood-opacity="0.38"/>
    </filter>
  </defs>

<g stroke-linecap="round" stroke-linejoin="round">
    <path d="M12 22L16 16H48L52 22V48L48 52H16L12 48V22Z" stroke="url(#dl-white)" stroke-width="3.2"/>
    <path d="M12 26H52" stroke="url(#dl-red)" stroke-width="3.2" filter="url(#glow-red)"/>
    <path d="M20 16V22M44 16V22" stroke="url(#dl-white)" stroke-width="3.2"/>
    <path d="M27 28H37L41 32V40L37 44H27L23 40V32L27 28Z" stroke="url(#dl-red)" stroke-width="3.2" filter="url(#glow-red)"/>
    <path d="M29 32H35L37 34V38L35 40H29" stroke="url(#dl-white)" stroke-width="2.8"/>

</g></symbol>
<symbol id="missions" viewBox="0 0 64 64">

  <defs>
    <linearGradient id="dl-red" x1="0" y1="0" x2="64" y2="64" gradientUnits="userSpaceOnUse">
      <stop offset="0%" stop-color="#ff2a2a"/>
      <stop offset="100%" stop-color="#8f0808"/>
    </linearGradient>
    <linearGradient id="dl-white" x1="0" y1="0" x2="64" y2="64" gradientUnits="userSpaceOnUse">
      <stop offset="0%" stop-color="#ffffff"/>
      <stop offset="100%" stop-color="#b7bac1"/>
    </linearGradient>
    <filter id="glow-red" x="-50%" y="-50%" width="200%" height="200%">
      <feDropShadow dx="0" dy="0" stdDeviation="2.2" flood-color="#ff0000" flood-opacity="0.38"/>
    </filter>
  </defs>

<g stroke-linecap="round" stroke-linejoin="round">
    <circle cx="32" cy="32" r="16" stroke="url(#dl-white)" stroke-width="3.2"/>
    <circle cx="32" cy="32" r="8" stroke="url(#dl-red)" stroke-width="3.2" filter="url(#glow-red)"/>
    <circle cx="32" cy="32" r="2.5" fill="#ff0000"/>
    <path d="M32 10V16M32 48V54M10 32H16M48 32H54" stroke="url(#dl-white)" stroke-width="3"/>

</g></symbol>
<symbol id="vault-key" viewBox="0 0 64 64">

  <defs>
    <linearGradient id="dl-red" x1="0" y1="0" x2="64" y2="64" gradientUnits="userSpaceOnUse">
      <stop offset="0%" stop-color="#ff2a2a"/>
      <stop offset="100%" stop-color="#8f0808"/>
    </linearGradient>
    <linearGradient id="dl-white" x1="0" y1="0" x2="64" y2="64" gradientUnits="userSpaceOnUse">
      <stop offset="0%" stop-color="#ffffff"/>
      <stop offset="100%" stop-color="#b7bac1"/>
    </linearGradient>
    <filter id="glow-red" x="-50%" y="-50%" width="200%" height="200%">
      <feDropShadow dx="0" dy="0" stdDeviation="2.2" flood-color="#ff0000" flood-opacity="0.38"/>
    </filter>
  </defs>

<g stroke-linecap="round" stroke-linejoin="round">
    <circle cx="22" cy="30" r="8" stroke="url(#dl-red)" stroke-width="3.4" filter="url(#glow-red)"/>
    <path d="M29 30H46V24H50V30H54V36H50V42H46V36H38" stroke="url(#dl-white)" stroke-width="3.2"/>
    <path d="M19 27H24L27 30L24 33H19" stroke="url(#dl-white)" stroke-width="2.8"/>

</g></symbol>
<symbol id="loot-reward" viewBox="0 0 64 64">

  <defs>
    <linearGradient id="dl-red" x1="0" y1="0" x2="64" y2="64" gradientUnits="userSpaceOnUse">
      <stop offset="0%" stop-color="#ff2a2a"/>
      <stop offset="100%" stop-color="#8f0808"/>
    </linearGradient>
    <linearGradient id="dl-white" x1="0" y1="0" x2="64" y2="64" gradientUnits="userSpaceOnUse">
      <stop offset="0%" stop-color="#ffffff"/>
      <stop offset="100%" stop-color="#b7bac1"/>
    </linearGradient>
    <filter id="glow-red" x="-50%" y="-50%" width="200%" height="200%">
      <feDropShadow dx="0" dy="0" stdDeviation="2.2" flood-color="#ff0000" flood-opacity="0.38"/>
    </filter>
  </defs>

<g stroke-linecap="round" stroke-linejoin="round">
    <path d="M12 24H52V50H12V24Z" stroke="url(#dl-white)" stroke-width="3.2"/>
    <path d="M32 24V50" stroke="url(#dl-red)" stroke-width="3.2" filter="url(#glow-red)"/>
    <path d="M12 30H52" stroke="url(#dl-red)" stroke-width="3.2" filter="url(#glow-red)"/>
    <path d="M32 24C30 17 24 14 20 17C17.5 18.8 17.8 23 22 23H32Z" stroke="url(#dl-white)" stroke-width="3.2"/>
    <path d="M32 24C34 17 40 14 44 17C46.5 18.8 46.2 23 42 23H32Z" stroke="url(#dl-white)" stroke-width="3.2"/>

</g></symbol>
<symbol id="ranking" viewBox="0 0 64 64">

  <defs>
    <linearGradient id="dl-red" x1="0" y1="0" x2="64" y2="64" gradientUnits="userSpaceOnUse">
      <stop offset="0%" stop-color="#ff2a2a"/>
      <stop offset="100%" stop-color="#8f0808"/>
    </linearGradient>
    <linearGradient id="dl-white" x1="0" y1="0" x2="64" y2="64" gradientUnits="userSpaceOnUse">
      <stop offset="0%" stop-color="#ffffff"/>
      <stop offset="100%" stop-color="#b7bac1"/>
    </linearGradient>
    <filter id="glow-red" x="-50%" y="-50%" width="200%" height="200%">
      <feDropShadow dx="0" dy="0" stdDeviation="2.2" flood-color="#ff0000" flood-opacity="0.38"/>
    </filter>
  </defs>

<g stroke-linecap="round" stroke-linejoin="round">
    <path d="M22 12H42V20C42 27 37.5 32 32 34C26.5 32 22 27 22 20V12Z" stroke="url(#dl-white)" stroke-width="3.2"/>
    <path d="M22 16H16C16 22 18 26 24 26M42 16H48C48 22 46 26 40 26" stroke="url(#dl-white)" stroke-width="3.2"/>
    <path d="M28 38H36" stroke="url(#dl-red)" stroke-width="3.2" filter="url(#glow-red)"/>
    <path d="M24 46H40M30 34V46M34 34V46" stroke="url(#dl-white)" stroke-width="3.2"/>

</g></symbol>
<symbol id="crown-premium" viewBox="0 0 64 64">

  <defs>
    <linearGradient id="dl-red" x1="0" y1="0" x2="64" y2="64" gradientUnits="userSpaceOnUse">
      <stop offset="0%" stop-color="#ff2a2a"/>
      <stop offset="100%" stop-color="#8f0808"/>
    </linearGradient>
    <linearGradient id="dl-white" x1="0" y1="0" x2="64" y2="64" gradientUnits="userSpaceOnUse">
      <stop offset="0%" stop-color="#ffffff"/>
      <stop offset="100%" stop-color="#b7bac1"/>
    </linearGradient>
    <filter id="glow-red" x="-50%" y="-50%" width="200%" height="200%">
      <feDropShadow dx="0" dy="0" stdDeviation="2.2" flood-color="#ff0000" flood-opacity="0.38"/>
    </filter>
  </defs>

<g stroke-linecap="round" stroke-linejoin="round">
    <path d="M14 22L24 34L32 20L40 34L50 22L46 46H18L14 22Z" stroke="url(#dl-white)" stroke-width="3.2"/>
    <path d="M18 42H46" stroke="url(#dl-red)" stroke-width="3.2" filter="url(#glow-red)"/>
    <circle cx="14" cy="22" r="2.5" fill="#ff0000"/>
    <circle cx="32" cy="20" r="2.5" fill="#ff0000"/>
    <circle cx="50" cy="22" r="2.5" fill="#ff0000"/>

</g></symbol>
<symbol id="gamepad" viewBox="0 0 64 64">

  <defs>
    <linearGradient id="dl-red" x1="0" y1="0" x2="64" y2="64" gradientUnits="userSpaceOnUse">
      <stop offset="0%" stop-color="#ff2a2a"/>
      <stop offset="100%" stop-color="#8f0808"/>
    </linearGradient>
    <linearGradient id="dl-white" x1="0" y1="0" x2="64" y2="64" gradientUnits="userSpaceOnUse">
      <stop offset="0%" stop-color="#ffffff"/>
      <stop offset="100%" stop-color="#b7bac1"/>
    </linearGradient>
    <filter id="glow-red" x="-50%" y="-50%" width="200%" height="200%">
      <feDropShadow dx="0" dy="0" stdDeviation="2.2" flood-color="#ff0000" flood-opacity="0.38"/>
    </filter>
  </defs>

<g stroke-linecap="round" stroke-linejoin="round">
    <path d="M18 26C14 26 10 30 10 36C10 42 14 46 18 46C22 46 24 42 32 42C40 42 42 46 46 46C50 46 54 42 54 36C54 30 50 26 46 26H18Z" stroke="url(#dl-white)" stroke-width="3.2"/>
    <path d="M22 34V40M19 37H25" stroke="url(#dl-red)" stroke-width="3.2" filter="url(#glow-red)"/>
    <circle cx="40" cy="35" r="2" fill="#ffffff"/>
    <circle cx="46" cy="39" r="2" fill="#ffffff"/>

</g></symbol>
<symbol id="sword" viewBox="0 0 64 64">

  <defs>
    <linearGradient id="dl-red" x1="0" y1="0" x2="64" y2="64" gradientUnits="userSpaceOnUse">
      <stop offset="0%" stop-color="#ff2a2a"/>
      <stop offset="100%" stop-color="#8f0808"/>
    </linearGradient>
    <linearGradient id="dl-white" x1="0" y1="0" x2="64" y2="64" gradientUnits="userSpaceOnUse">
      <stop offset="0%" stop-color="#ffffff"/>
      <stop offset="100%" stop-color="#b7bac1"/>
    </linearGradient>
    <filter id="glow-red" x="-50%" y="-50%" width="200%" height="200%">
      <feDropShadow dx="0" dy="0" stdDeviation="2.2" flood-color="#ff0000" flood-opacity="0.38"/>
    </filter>
  </defs>

<g stroke-linecap="round" stroke-linejoin="round">
    <path d="M40 14L48 22L28 42L20 34L40 14Z" stroke="url(#dl-red)" stroke-width="3.4" filter="url(#glow-red)"/>
    <path d="M18 36L14 40L24 50L28 46" stroke="url(#dl-white)" stroke-width="3.2"/>
    <path d="M18 46L12 52" stroke="url(#dl-white)" stroke-width="3.2"/>

</g></symbol>
<symbol id="star-favorite" viewBox="0 0 64 64">

  <defs>
    <linearGradient id="dl-red" x1="0" y1="0" x2="64" y2="64" gradientUnits="userSpaceOnUse">
      <stop offset="0%" stop-color="#ff2a2a"/>
      <stop offset="100%" stop-color="#8f0808"/>
    </linearGradient>
    <linearGradient id="dl-white" x1="0" y1="0" x2="64" y2="64" gradientUnits="userSpaceOnUse">
      <stop offset="0%" stop-color="#ffffff"/>
      <stop offset="100%" stop-color="#b7bac1"/>
    </linearGradient>
    <filter id="glow-red" x="-50%" y="-50%" width="200%" height="200%">
      <feDropShadow dx="0" dy="0" stdDeviation="2.2" flood-color="#ff0000" flood-opacity="0.38"/>
    </filter>
  </defs>

<g stroke-linecap="round" stroke-linejoin="round">
    <polygon points="32 10 38 24 54 24 41 34 46 50 32 40 18 50 23 34 10 24 26 24" stroke="url(#dl-white)" stroke-width="3.2"/>
    <circle cx="32" cy="32" r="3" fill="#ff0000"/>

</g></symbol>
<symbol id="community-chat" viewBox="0 0 64 64">

  <defs>
    <linearGradient id="dl-red" x1="0" y1="0" x2="64" y2="64" gradientUnits="userSpaceOnUse">
      <stop offset="0%" stop-color="#ff2a2a"/>
      <stop offset="100%" stop-color="#8f0808"/>
    </linearGradient>
    <linearGradient id="dl-white" x1="0" y1="0" x2="64" y2="64" gradientUnits="userSpaceOnUse">
      <stop offset="0%" stop-color="#ffffff"/>
      <stop offset="100%" stop-color="#b7bac1"/>
    </linearGradient>
    <filter id="glow-red" x="-50%" y="-50%" width="200%" height="200%">
      <feDropShadow dx="0" dy="0" stdDeviation="2.2" flood-color="#ff0000" flood-opacity="0.38"/>
    </filter>
  </defs>

<g stroke-linecap="round" stroke-linejoin="round">
    <path d="M12 16H36C39.3 16 42 18.7 42 22V30C42 33.3 39.3 36 36 36H22L16 42V36H12C8.7 36 6 33.3 6 30V22C6 18.7 8.7 16 12 16Z" stroke="url(#dl-white)" stroke-width="3.2"/>
    <path d="M30 24H50C53.3 24 56 26.7 56 30V38C56 41.3 53.3 44 50 44H46V50L40 44H34" stroke="url(#dl-red)" stroke-width="3.2" filter="url(#glow-red)"/>

</g></symbol>
<symbol id="microphone" viewBox="0 0 64 64">

  <defs>
    <linearGradient id="dl-red" x1="0" y1="0" x2="64" y2="64" gradientUnits="userSpaceOnUse">
      <stop offset="0%" stop-color="#ff2a2a"/>
      <stop offset="100%" stop-color="#8f0808"/>
    </linearGradient>
    <linearGradient id="dl-white" x1="0" y1="0" x2="64" y2="64" gradientUnits="userSpaceOnUse">
      <stop offset="0%" stop-color="#ffffff"/>
      <stop offset="100%" stop-color="#b7bac1"/>
    </linearGradient>
    <filter id="glow-red" x="-50%" y="-50%" width="200%" height="200%">
      <feDropShadow dx="0" dy="0" stdDeviation="2.2" flood-color="#ff0000" flood-opacity="0.38"/>
    </filter>
  </defs>

<g stroke-linecap="round" stroke-linejoin="round">
    <rect x="24" y="12" width="16" height="24" rx="8" stroke="url(#dl-white)" stroke-width="3.2"/>
    <path d="M18 30C18 38 24 42 32 42C40 42 46 38 46 30" stroke="url(#dl-red)" stroke-width="3.2" filter="url(#glow-red)"/>
    <path d="M32 42V52M24 52H40" stroke="url(#dl-white)" stroke-width="3.2"/>

</g></symbol>
<symbol id="ping-connection" viewBox="0 0 64 64">

  <defs>
    <linearGradient id="dl-red" x1="0" y1="0" x2="64" y2="64" gradientUnits="userSpaceOnUse">
      <stop offset="0%" stop-color="#ff2a2a"/>
      <stop offset="100%" stop-color="#8f0808"/>
    </linearGradient>
    <linearGradient id="dl-white" x1="0" y1="0" x2="64" y2="64" gradientUnits="userSpaceOnUse">
      <stop offset="0%" stop-color="#ffffff"/>
      <stop offset="100%" stop-color="#b7bac1"/>
    </linearGradient>
    <filter id="glow-red" x="-50%" y="-50%" width="200%" height="200%">
      <feDropShadow dx="0" dy="0" stdDeviation="2.2" flood-color="#ff0000" flood-opacity="0.38"/>
    </filter>
  </defs>

<g stroke-linecap="round" stroke-linejoin="round">
    <path d="M12 46H18M22 40H28" stroke="url(#dl-white)" stroke-width="3.6"/>
    <path d="M32 34H38M42 28H48M52 22H58" stroke="url(#dl-red)" stroke-width="3.6" filter="url(#glow-red)"/>
    <path d="M10 20C16 14 24 11 32 11C40 11 48 14 54 20" stroke="url(#dl-white)" stroke-width="2.8"/>

</g></symbol>
<symbol id="wallet" viewBox="0 0 64 64">

  <defs>
    <linearGradient id="dl-red" x1="0" y1="0" x2="64" y2="64" gradientUnits="userSpaceOnUse">
      <stop offset="0%" stop-color="#ff2a2a"/>
      <stop offset="100%" stop-color="#8f0808"/>
    </linearGradient>
    <linearGradient id="dl-white" x1="0" y1="0" x2="64" y2="64" gradientUnits="userSpaceOnUse">
      <stop offset="0%" stop-color="#ffffff"/>
      <stop offset="100%" stop-color="#b7bac1"/>
    </linearGradient>
    <filter id="glow-red" x="-50%" y="-50%" width="200%" height="200%">
      <feDropShadow dx="0" dy="0" stdDeviation="2.2" flood-color="#ff0000" flood-opacity="0.38"/>
    </filter>
  </defs>

<g stroke-linecap="round" stroke-linejoin="round">
    <path d="M12 22H46C49.3 22 52 24.7 52 28V42C52 45.3 49.3 48 46 48H12V22Z" stroke="url(#dl-white)" stroke-width="3.2"/>
    <path d="M12 22L44 16V24" stroke="url(#dl-white)" stroke-width="3.2"/>
    <path d="M38 34H52" stroke="url(#dl-red)" stroke-width="3.2" filter="url(#glow-red)"/>
    <circle cx="42" cy="34" r="2" fill="#ffffff"/>

</g></symbol>
<symbol id="coin" viewBox="0 0 64 64">

  <defs>
    <linearGradient id="dl-red" x1="0" y1="0" x2="64" y2="64" gradientUnits="userSpaceOnUse">
      <stop offset="0%" stop-color="#ff2a2a"/>
      <stop offset="100%" stop-color="#8f0808"/>
    </linearGradient>
    <linearGradient id="dl-white" x1="0" y1="0" x2="64" y2="64" gradientUnits="userSpaceOnUse">
      <stop offset="0%" stop-color="#ffffff"/>
      <stop offset="100%" stop-color="#b7bac1"/>
    </linearGradient>
    <filter id="glow-red" x="-50%" y="-50%" width="200%" height="200%">
      <feDropShadow dx="0" dy="0" stdDeviation="2.2" flood-color="#ff0000" flood-opacity="0.38"/>
    </filter>
  </defs>

<g stroke-linecap="round" stroke-linejoin="round">
    <circle cx="32" cy="32" r="18" stroke="url(#dl-white)" stroke-width="3.2"/>
    <path d="M28 24H36L40 28V36L36 40H28L24 36V28L28 24Z" stroke="url(#dl-red)" stroke-width="3.2" filter="url(#glow-red)"/>
    <path d="M30 28H34L36 30V34L34 36H30" stroke="url(#dl-white)" stroke-width="2.6"/>

</g></symbol>
<symbol id="gift" viewBox="0 0 64 64">

  <defs>
    <linearGradient id="dl-red" x1="0" y1="0" x2="64" y2="64" gradientUnits="userSpaceOnUse">
      <stop offset="0%" stop-color="#ff2a2a"/>
      <stop offset="100%" stop-color="#8f0808"/>
    </linearGradient>
    <linearGradient id="dl-white" x1="0" y1="0" x2="64" y2="64" gradientUnits="userSpaceOnUse">
      <stop offset="0%" stop-color="#ffffff"/>
      <stop offset="100%" stop-color="#b7bac1"/>
    </linearGradient>
    <filter id="glow-red" x="-50%" y="-50%" width="200%" height="200%">
      <feDropShadow dx="0" dy="0" stdDeviation="2.2" flood-color="#ff0000" flood-opacity="0.38"/>
    </filter>
  </defs>

<g stroke-linecap="round" stroke-linejoin="round">
    <path d="M12 24H52V50H12V24Z" stroke="url(#dl-white)" stroke-width="3.2"/>
    <path d="M32 24V50M12 30H52" stroke="url(#dl-red)" stroke-width="3.2" filter="url(#glow-red)"/>
    <path d="M32 24C30 17 24 14 20 17C17.5 18.8 17.8 23 22 23H32ZM32 24C34 17 40 14 44 17C46.5 18.8 46.2 23 42 23H32Z" stroke="url(#dl-white)" stroke-width="3.2"/>

</g></symbol>
<symbol id="play-trailer" viewBox="0 0 64 64">

  <defs>
    <linearGradient id="dl-red" x1="0" y1="0" x2="64" y2="64" gradientUnits="userSpaceOnUse">
      <stop offset="0%" stop-color="#ff2a2a"/>
      <stop offset="100%" stop-color="#8f0808"/>
    </linearGradient>
    <linearGradient id="dl-white" x1="0" y1="0" x2="64" y2="64" gradientUnits="userSpaceOnUse">
      <stop offset="0%" stop-color="#ffffff"/>
      <stop offset="100%" stop-color="#b7bac1"/>
    </linearGradient>
    <filter id="glow-red" x="-50%" y="-50%" width="200%" height="200%">
      <feDropShadow dx="0" dy="0" stdDeviation="2.2" flood-color="#ff0000" flood-opacity="0.38"/>
    </filter>
  </defs>

<g stroke-linecap="round" stroke-linejoin="round">
    <circle cx="32" cy="32" r="22" stroke="url(#dl-white)" stroke-width="3.2"/>
    <path d="M28 24L42 32L28 40V24Z" stroke="url(#dl-red)" stroke-width="3.2" fill="rgba(255,0,0,0.08)" filter="url(#glow-red)"/>

</g></symbol>
<symbol id="image-placeholder" viewBox="0 0 64 64">

  <defs>
    <linearGradient id="dl-red" x1="0" y1="0" x2="64" y2="64" gradientUnits="userSpaceOnUse">
      <stop offset="0%" stop-color="#ff2a2a"/>
      <stop offset="100%" stop-color="#8f0808"/>
    </linearGradient>
    <linearGradient id="dl-white" x1="0" y1="0" x2="64" y2="64" gradientUnits="userSpaceOnUse">
      <stop offset="0%" stop-color="#ffffff"/>
      <stop offset="100%" stop-color="#b7bac1"/>
    </linearGradient>
    <filter id="glow-red" x="-50%" y="-50%" width="200%" height="200%">
      <feDropShadow dx="0" dy="0" stdDeviation="2.2" flood-color="#ff0000" flood-opacity="0.38"/>
    </filter>
  </defs>

<g stroke-linecap="round" stroke-linejoin="round">
    <rect x="10" y="14" width="44" height="36" rx="6" stroke="url(#dl-white)" stroke-width="3.2"/>
    <circle cx="22" cy="25" r="3.2" stroke="url(#dl-red)" stroke-width="2.8" filter="url(#glow-red)"/>
    <path d="M16 42L27 31L35 39L42 32L48 38" stroke="url(#dl-white)" stroke-width="3"/>

</g></symbol>
<symbol id="download" viewBox="0 0 64 64">

  <defs>
    <linearGradient id="dl-red" x1="0" y1="0" x2="64" y2="64" gradientUnits="userSpaceOnUse">
      <stop offset="0%" stop-color="#ff2a2a"/>
      <stop offset="100%" stop-color="#8f0808"/>
    </linearGradient>
    <linearGradient id="dl-white" x1="0" y1="0" x2="64" y2="64" gradientUnits="userSpaceOnUse">
      <stop offset="0%" stop-color="#ffffff"/>
      <stop offset="100%" stop-color="#b7bac1"/>
    </linearGradient>
    <filter id="glow-red" x="-50%" y="-50%" width="200%" height="200%">
      <feDropShadow dx="0" dy="0" stdDeviation="2.2" flood-color="#ff0000" flood-opacity="0.38"/>
    </filter>
  </defs>

<g stroke-linecap="round" stroke-linejoin="round">
    <path d="M32 14V40" stroke="url(#dl-red)" stroke-width="4" filter="url(#glow-red)"/>
    <path d="M22 30L32 40L42 30" stroke="url(#dl-red)" stroke-width="4" filter="url(#glow-red)"/>
    <path d="M14 50H50" stroke="url(#dl-white)" stroke-width="3.2"/>

</g></symbol>
<symbol id="upload" viewBox="0 0 64 64">

  <defs>
    <linearGradient id="dl-red" x1="0" y1="0" x2="64" y2="64" gradientUnits="userSpaceOnUse">
      <stop offset="0%" stop-color="#ff2a2a"/>
      <stop offset="100%" stop-color="#8f0808"/>
    </linearGradient>
    <linearGradient id="dl-white" x1="0" y1="0" x2="64" y2="64" gradientUnits="userSpaceOnUse">
      <stop offset="0%" stop-color="#ffffff"/>
      <stop offset="100%" stop-color="#b7bac1"/>
    </linearGradient>
    <filter id="glow-red" x="-50%" y="-50%" width="200%" height="200%">
      <feDropShadow dx="0" dy="0" stdDeviation="2.2" flood-color="#ff0000" flood-opacity="0.38"/>
    </filter>
  </defs>

<g stroke-linecap="round" stroke-linejoin="round">
    <path d="M32 50V24" stroke="url(#dl-red)" stroke-width="4" filter="url(#glow-red)"/>
    <path d="M22 34L32 24L42 34" stroke="url(#dl-red)" stroke-width="4" filter="url(#glow-red)"/>
    <path d="M14 14H50" stroke="url(#dl-white)" stroke-width="3.2"/>

</g></symbol>
</svg>