<svg xmlns="http://www.w3.org/2000/svg" width="64" height="64" viewBox="0 0 64 64" fill="none" role="img" aria-labelledby="title desc">
  <title>Gamepad</title>
  <desc>Gamepad icon.</desc>
  <defs>
      <linearGradient id="dl-red" x1="0" y1="0" x2="64" y2="64" gradientUnits="userSpaceOnUse">
        <stop offset="0%" stop-color="#ff2a2a"/>
        <stop offset="100%" stop-color="#8f0808"/>
      </linearGradient>
      <linearGradient id="dl-white" x1="0" y1="0" x2="64" y2="64" gradientUnits="userSpaceOnUse">
        <stop offset="0%" stop-color="#ffffff"/>
        <stop offset="100%" stop-color="#b7bac1"/>
      </linearGradient>
      <filter id="glow-red" x="-50%" y="-50%" width="200%" height="200%">
        <feDropShadow dx="0" dy="0" stdDeviation="2.2" flood-color="#ff0000" flood-opacity="0.38"/>
      </filter>
    </defs>
  <g stroke-linecap="round" stroke-linejoin="round">
    <path d="M18 26C14 26 10 30 10 36C10 42 14 46 18 46C22 46 24 42 32 42C40 42 42 46 46 46C50 46 54 42 54 36C54 30 50 26 46 26H18Z" stroke="url(#dl-white)" stroke-width="3.2"/>
    <path d="M22 34V40M19 37H25" stroke="url(#dl-red)" stroke-width="3.2" filter="url(#glow-red)"/>
    <circle cx="40" cy="35" r="2" fill="#ffffff"/>
    <circle cx="46" cy="39" r="2" fill="#ffffff"/>

  </g>
</svg>
